<svg xmlns="http://www.w3.org/2000/svg" xmlns:xlink="http://www.w3.org/1999/xlink" id="Layer_1" data-name="Layer 1" viewBox="0 0 426.64 372.7"><defs><style>.cls-1{fill:#595dff}.cls-2{fill:url(#New_Gradient_Swatch_7)}.cls-3{fill:url(#New_Gradient_Swatch_7-2)}.cls-4{fill:url(#linear-gradient)}.cls-5{fill:url(#linear-gradient-2)}.cls-6{fill:url(#linear-gradient-3)}.cls-7{fill:url(#linear-gradient-4)}.cls-8{fill:url(#linear-gradient-5)}.cls-9{fill:url(#linear-gradient-6)}.cls-10{fill:url(#linear-gradient-7)}.cls-11{fill:url(#linear-gradient-8)}.cls-12{fill:url(#linear-gradient-9)}.cls-13{fill:url(#linear-gradient-10)}.cls-14{fill:url(#linear-gradient-11)}.cls-15{fill:url(#linear-gradient-12)}.cls-16{fill:url(#linear-gradient-13)}.cls-17{fill:url(#linear-gradient-14)}.cls-18{fill:url(#linear-gradient-15)}.cls-19{fill:url(#linear-gradient-16)}.cls-20{fill:url(#linear-gradient-17)}.cls-21{fill:url(#linear-gradient-18)}.cls-22{fill:url(#linear-gradient-19)}.cls-23{fill:url(#linear-gradient-20)}.cls-24{fill:url(#linear-gradient-21)}.cls-25{fill:url(#linear-gradient-22)}.cls-26{fill:url(#linear-gradient-23)}.cls-27{fill:url(#linear-gradient-24)}.cls-28{fill:url(#linear-gradient-25)}.cls-29{fill:url(#linear-gradient-26)}.cls-30{fill:url(#linear-gradient-27)}.cls-31{fill:url(#linear-gradient-28)}.cls-32{fill:url(#linear-gradient-29)}.cls-33{fill:url(#linear-gradient-30)}.cls-34{fill:url(#linear-gradient-31)}.cls-35{fill:url(#linear-gradient-32)}.cls-36{fill:url(#linear-gradient-33)}</style><radialGradient id="New_Gradient_Swatch_7" cx="213.08" cy="127.68" r="68.49" gradientTransform="translate(0 -127.68) scale(1 2)" gradientUnits="userSpaceOnUse"><stop offset="0" stop-color="#c6f8ff"/><stop offset="1" stop-color="#595dff"/></radialGradient><radialGradient id="New_Gradient_Swatch_7-2" cx="258.55" cy="168.15" r="33.81" gradientTransform="translate(0 -168.15) scale(1 2)" xlink:href="#New_Gradient_Swatch_7"/><linearGradient id="linear-gradient" x1="108.73" x2="108.73" y1="53.38" y2="14.71" gradientUnits="userSpaceOnUse"><stop offset="0" stop-color="#595dff"/><stop offset=".34" stop-color="#4442d5"/><stop offset="1" stop-color="#150578"/><stop offset="1" stop-color="#133a94"/></linearGradient><linearGradient id="linear-gradient-2" x1="86.36" x2="86.36" y1="85.51" y2="53.54" xlink:href="#linear-gradient"/><linearGradient id="linear-gradient-3" x1="69.31" x2="69.31" y1="81.28" y2="24.97" xlink:href="#linear-gradient"/><linearGradient id="linear-gradient-4" x1="43.98" x2="43.98" y1="123.32" y2="62.36" xlink:href="#linear-gradient"/><linearGradient id="linear-gradient-5" x1="31.25" x2="31.25" y1="168.94" y2="106.54" xlink:href="#linear-gradient"/><linearGradient id="linear-gradient-6" x1="31.39" x2="31.39" y1="213.95" y2="154.99" xlink:href="#linear-gradient"/><linearGradient id="linear-gradient-7" x1="42.93" x2="42.93" y1="254.52" y2="204.49" xlink:href="#linear-gradient"/><linearGradient id="linear-gradient-8" x1="65.72" x2="65.72" y1="289.43" y2="251.06" xlink:href="#linear-gradient"/><linearGradient id="linear-gradient-9" x1="98.48" x2="98.48" y1="318.1" y2="291.8" xlink:href="#linear-gradient"/><linearGradient id="linear-gradient-10" x1="137.92" x2="137.92" y1="338.42" y2="320.74" xlink:href="#linear-gradient"/><linearGradient id="linear-gradient-11" x1="66.35" x2="66.35" y1="125.29" y2="84.29" xlink:href="#linear-gradient"/><linearGradient id="linear-gradient-12" x1="55.6" x2="55.6" y1="168.57" y2="119.06" xlink:href="#linear-gradient"/><linearGradient id="linear-gradient-13" x1="53.72" x2="53.72" y1="212.11" y2="156.48" xlink:href="#linear-gradient"/><linearGradient id="linear-gradient-14" x1="62.99" x2="62.99" y1="252.09" y2="195.43" xlink:href="#linear-gradient"/><linearGradient id="linear-gradient-15" x1="83.72" x2="83.72" y1="286.35" y2="230.85" xlink:href="#linear-gradient"/><linearGradient id="linear-gradient-16" x1="114.64" x2="114.64" y1="311.86" y2="262.78" xlink:href="#linear-gradient"/><linearGradient id="linear-gradient-17" x1="323.16" x2="323.16" y1="53.38" y2="14.71" xlink:href="#linear-gradient"/><linearGradient id="linear-gradient-18" x1="345.53" x2="345.53" y1="85.51" y2="53.54" xlink:href="#linear-gradient"/><linearGradient id="linear-gradient-19" x1="362.59" x2="362.59" y1="81.28" y2="24.97" xlink:href="#linear-gradient"/><linearGradient id="linear-gradient-20" x1="387.92" x2="387.92" y1="123.32" y2="62.36" xlink:href="#linear-gradient"/><linearGradient id="linear-gradient-21" x1="400.65" x2="400.65" y1="168.94" y2="106.54" xlink:href="#linear-gradient"/><linearGradient id="linear-gradient-22" x1="400.5" x2="400.5" y1="213.95" y2="154.99" xlink:href="#linear-gradient"/><linearGradient id="linear-gradient-23" x1="388.97" x2="388.97" y1="254.52" y2="204.49" xlink:href="#linear-gradient"/><linearGradient id="linear-gradient-24" x1="366.17" x2="366.17" y1="289.43" y2="251.06" xlink:href="#linear-gradient"/><linearGradient id="linear-gradient-25" x1="333.41" x2="333.41" y1="318.1" y2="291.8" xlink:href="#linear-gradient"/><linearGradient id="linear-gradient-26" x1="293.98" x2="293.98" y1="338.42" y2="320.74" xlink:href="#linear-gradient"/><linearGradient id="linear-gradient-27" x1="215.95" x2="215.95" y1="356.81" y2="287.32" xlink:href="#linear-gradient"/><linearGradient id="linear-gradient-28" x1="365.54" x2="365.54" y1="125.29" y2="84.29" xlink:href="#linear-gradient"/><linearGradient id="linear-gradient-29" x1="376.29" x2="376.29" y1="168.57" y2="119.06" xlink:href="#linear-gradient"/><linearGradient id="linear-gradient-30" x1="378.18" x2="378.18" y1="212.11" y2="156.48" xlink:href="#linear-gradient"/><linearGradient id="linear-gradient-31" x1="368.9" x2="368.9" y1="252.09" y2="195.43" xlink:href="#linear-gradient"/><linearGradient id="linear-gradient-32" x1="348.17" x2="348.17" y1="286.35" y2="230.85" xlink:href="#linear-gradient"/><linearGradient id="linear-gradient-33" x1="317.25" x2="317.25" y1="311.86" y2="262.78" xlink:href="#linear-gradient"/></defs><title>Simbolo Talentum FINAL</title><polygon points="160.5 232.34 199.19 232.34 199.19 320.94 234.82 320.94 234.82 232.34 273.34 232.34 273.34 206.73 160.5 206.73 160.5 232.34" class="cls-1"/><path d="M277.7,108.15C271.17,64.72,229.81,56,229.81,56c45.12,50.76-2.47,89.12-2.47,89.12-27.37,21.72-31.76,35.53-32.7,33.84s1.42-10.55,1.42-10.55c2.56-13.94,35-27.5,27.34-55.77s-28.62-37.57-28.62-37.57c5.13,25.17-20.44,42.6-20.44,42.6-49.48,38.35-14.17,81.73-14.17,81.73h48.47C225.13,167.07,284.24,151.59,277.7,108.15Z" class="cls-2"/><path d="M291.08,136.92c-4.05,8.18-9,17.2-37.33,33.84s-31.42,28.62-31.42,28.62h49.46C307.25,168.76,291.08,136.92,291.08,136.92Z" class="cls-3"/><path d="M134.37,15.4a.43.43,0,0,0-.33-.69c-6.12,0-47.18,1.32-51,38.67A91.83,91.83,0,0,0,93.48,51S110.47,48.85,134.37,15.4Z" class="cls-4"/><path d="M62.07,84.79s-.54,1.61,4.56,0,26.31-11,28.73-12.62,12.5-7.76,15.24-15.58a1.22,1.22,0,0,0-.73-1.53c-3.21-1.24-13.4-4-26.86,3.69A47.45,47.45,0,0,0,62.07,84.79Z" class="cls-5"/><path d="M59,80.94c6.94-12,12.73-18.65,15.71-21.14A8.4,8.4,0,0,0,77.54,55c1.61-7.9,4.35-24.16,5.2-29.3a.65.65,0,0,0-1-.61c-32.44,24.64-26,50.05-23.88,55.76A.64.64,0,0,0,59,80.94Z" class="cls-6"/><path d="M41.1,123.08a1,1,0,0,0,1.68-.67c1.44-9,7.62-22.25,9.06-25a4.56,4.56,0,0,0,.45-1.18c1.78-8.42-.75-27.77-1.54-33.3a.69.69,0,0,0-1.22-.33c-17.15,20.45-14.3,38.29-14.3,38.29C36.14,115.83,39.26,121.54,41.1,123.08Z" class="cls-7"/><path d="M36.14,168.76a.61.61,0,0,0,1-.48c-.23-14.29,1-22.59,2.23-26.27a9.16,9.16,0,0,0,0-5.74c-2.65-8.05-7.86-24.12-9.74-29.27a.64.64,0,0,0-1.2-.08C13.57,144.71,31.48,164.45,36.14,168.76Z" class="cls-8"/><path d="M43.53,213.87a.59.59,0,0,0,.87-.71c-5.29-13.15-5.76-17.52-5.27-26.37a11.94,11.94,0,0,0-1.45-5.55c-4-8.57-14.39-21.43-17.49-25.94a.64.64,0,0,0-1.18.22C14,195.82,37.94,210.87,43.53,213.87Z" class="cls-9"/><path d="M61.33,254.5a.59.59,0,0,0,.66-.91c-8.44-11.39-8.14-14.68-10.87-23.23a14.85,14.85,0,0,0-2.81-5c-6-7.29-19.33-17.1-23.48-20.68a.63.63,0,0,0-1.08.51C29.13,245.43,55.16,253,61.33,254.5Z" class="cls-10"/><path d="M90.57,289.36a.67.67,0,0,0,.37-1.21c-11.11-8.47-12.6-12.45-17.34-19.7a14.55,14.55,0,0,0-4.1-4c-7.8-5.32-23.33-11-28.32-13.31a.64.64,0,0,0-.89.8C56.6,288.87,79.13,289.81,90.57,289.36Z" class="cls-11"/><path d="M111,318s6.53.81,16.54-2.41a.24.24,0,0,0,0-.46,47.55,47.55,0,0,1-16.27-9.57c-8.92-7.78-7.6-8.26-20.6-10.72-12-2.28-18.9-3-21.1-3.05a.27.27,0,0,0-.24.41c.9,1.66,5,8.31,16.4,16.59C98.92,318.39,111,318,111,318Z" class="cls-12"/><path d="M168.25,331.8a.55.55,0,0,0-.33-.85c-3.17-.75-16.54-4.09-22.3-8-6.42-4.37-26.33-1.17-37.85.48a.33.33,0,0,0-.17.58,58.27,58.27,0,0,0,29.57,13.85C153.94,340.21,166,334.69,168.25,331.8Z" class="cls-13"/><path d="M86.31,85.06a.7.7,0,0,0-.69-.76c-5-.12-33.26.92-39.23,40.34a.56.56,0,0,0,.82.58C53.19,121.79,84.7,102.91,86.31,85.06Z" class="cls-14"/><path d="M64.46,141.15S72,128.08,69.4,119.64a.83.83,0,0,0-1-.56c-3.85.83-21.75,5.93-26.32,29.9,0,0-1.44,12.84-.56,19.16a.51.51,0,0,0,.8.33C44.68,166.7,53.05,159.64,64.46,141.15Z" class="cls-15"/><path d="M49.17,211.85a120.68,120.68,0,0,0,12.94-29.59c4.32-15.07,1.79-23.06.81-25.33a.73.73,0,0,0-1-.37c-3.09,1.57-15.77,9.08-18.47,27.3-2.27,15.31,3.08,25.29,4.77,28A.57.57,0,0,0,49.17,211.85Z" class="cls-16"/><path d="M66.15,251.9a.5.5,0,0,0,.87-.17c1.32-4.25,6.84-23.19,4.75-37.78-1.75-12.15-4.83-16.64-6.34-18.16a1.15,1.15,0,0,0-1.62,0c-5.16,5-11.87,17.36-9.6,31C56.23,239,64,249.21,66.15,251.9Z" class="cls-17"/><path d="M93.92,286.28a.49.49,0,0,0,.74-.42c0-4.32-.06-24.64-5-37.82-4.45-11.78-9.33-15.87-11.14-17a.82.82,0,0,0-1.16.24c-1.7,2.68-7.51,13.51-2.6,29.63A44.77,44.77,0,0,0,93.92,286.28Z" class="cls-18"/><path d="M98.53,280c.23,4,5.94,12.44,5.94,12.44a50.51,50.51,0,0,0,25.73,19.43.46.46,0,0,0,.59-.55c-1.78-7.49-9-23.49-14-33.12-5.12-10-18.76-17.56-18.28-14.81S98.3,276,98.53,280Z" class="cls-19"/><path d="M338.42,51a91.2,91.2,0,0,0,10.47,2.41C345,16,304,14.69,297.85,14.71a.43.43,0,0,0-.32.69C321.42,48.85,338.42,51,338.42,51Z" class="cls-20"/><path d="M365.26,84.79c5.1,1.61,4.57,0,4.57,0a47.51,47.51,0,0,0-20.94-26C335.43,51,325.23,53.82,322,55.06a1.23,1.23,0,0,0-.74,1.53c2.75,7.82,12.94,14,15.25,15.58S360.16,83.18,365.26,84.79Z" class="cls-21"/><path d="M357.21,59.8c3,2.49,8.77,9.14,15.7,21.14a.64.64,0,0,0,1.17-.07c2.1-5.71,8.56-31.12-23.88-55.76a.66.66,0,0,0-1.05.61c.86,5.14,3.6,21.4,5.21,29.3A8.4,8.4,0,0,0,357.21,59.8Z" class="cls-22"/><path d="M380.05,97.42c1.44,2.74,7.62,16,9.07,25a1,1,0,0,0,1.67.67c1.84-1.54,5-7.25,5.88-22.18,0,0,2.84-17.84-14.3-38.29a.69.69,0,0,0-1.22.33c-.79,5.53-3.33,24.88-1.54,33.3A4.54,4.54,0,0,0,380.05,97.42Z" class="cls-23"/><path d="M392.5,142c1.25,3.68,2.46,12,2.23,26.27a.6.6,0,0,0,1,.48c4.66-4.31,22.58-24,7.71-61.84a.64.64,0,0,0-1.2.08c-1.88,5.15-7.09,21.22-9.74,29.27A9.09,9.09,0,0,0,392.5,142Z" class="cls-24"/><path d="M392.77,186.79c.49,8.85,0,13.22-5.28,26.37a.6.6,0,0,0,.88.71c5.58-3,29.48-18.05,24.52-58.35a.64.64,0,0,0-1.18-.22c-3.11,4.51-13.51,17.37-17.49,25.94A11.7,11.7,0,0,0,392.77,186.79Z" class="cls-25"/><path d="M407.06,204.67c-4.14,3.58-17.46,13.39-23.48,20.68a15,15,0,0,0-2.8,5c-2.73,8.55-2.43,11.84-10.87,23.23a.59.59,0,0,0,.66.91c6.17-1.5,32.2-9.07,37.58-49.32A.64.64,0,0,0,407.06,204.67Z" class="cls-26"/><path d="M390.71,251.12c-5,2.29-20.51,8-28.32,13.31a14.51,14.51,0,0,0-4.09,4c-4.75,7.25-6.23,11.23-17.34,19.7a.67.67,0,0,0,.37,1.21c11.44.45,34-.49,50.28-37.44A.64.64,0,0,0,390.71,251.12Z" class="cls-27"/><path d="M362.33,291.8c-2.19,0-9.1.77-21.09,3.05-13,2.46-11.68,2.94-20.6,10.72a47.55,47.55,0,0,1-16.27,9.57.24.24,0,0,0,0,.46c10,3.22,16.53,2.41,16.53,2.41s12.06.38,25.25-9.21c11.4-8.28,15.5-14.93,16.41-16.59A.28.28,0,0,0,362.33,291.8Z" class="cls-28"/><path d="M324.12,323.42c-11.51-1.65-31.43-4.85-37.85-.48-5.75,3.92-19.12,7.26-22.29,8a.54.54,0,0,0-.33.85c2.2,2.89,14.31,8.41,31.07,6.05A58.27,58.27,0,0,0,324.3,324,.33.33,0,0,0,324.12,323.42Z" class="cls-29"/><path d="M300.52,350c-13.86-4.22-45.25-12.29-54.42-9.61-4.55,1.34-12,2-18.39,2.25a288.54,288.54,0,0,1,40.62-17c40.16-12.63,34.56-38.38,34.56-38.38s-17.57.11-36.93,30.78c0,0-1.62,5.32-16.71,9.4-7.46,2-18.54,6.7-33.3,15-14.77-8.27-25.84-13-33.3-15-15.1-4.08-16.71-9.4-16.71-9.4C146.57,287.43,129,287.32,129,287.32s-5.6,25.75,34.56,38.38a289.1,289.1,0,0,1,40.62,17c-6.42-.29-13.84-.91-18.4-2.25-9.17-2.68-40.55,5.39-54.41,9.61-.35.11-.38.46-.06.6,3.66,1.56,27.51,7.48,48,5.94s33.73-8.93,36.6-12.44c2.87,3.51,16.11,10.89,36.6,12.44s44.36-4.38,48-5.94C300.9,350.48,300.86,350.13,300.52,350Z" class="cls-30"/><path d="M385.5,124.64c-6-39.42-34.27-40.46-39.22-40.34a.7.7,0,0,0-.7.76c1.61,17.85,33.13,36.73,39.11,40.16A.55.55,0,0,0,385.5,124.64Z" class="cls-31"/><path d="M363.47,119.08a.82.82,0,0,0-1,.56c-2.61,8.44,4.94,21.51,4.94,21.51,11.4,18.49,19.77,25.55,22.12,27.32a.5.5,0,0,0,.79-.33c.88-6.32-.56-19.16-.56-19.16C385.23,125,367.33,119.91,363.47,119.08Z" class="cls-32"/><path d="M383.69,211.84c1.69-2.69,7-12.67,4.77-28-2.7-18.22-15.39-25.73-18.47-27.3a.72.72,0,0,0-1,.37c-1,2.27-3.51,10.26.81,25.33a120.81,120.81,0,0,0,12.93,29.59A.57.57,0,0,0,383.69,211.84Z" class="cls-33"/><path d="M365.75,251.9c2.19-2.69,9.91-12.87,11.94-25.12,2.26-13.68-4.45-26.06-9.61-31a1.14,1.14,0,0,0-1.61,0c-1.51,1.52-4.6,6-6.34,18.16-2.1,14.59,3.42,33.53,4.75,37.78A.5.5,0,0,0,365.75,251.9Z" class="cls-34"/><path d="M338,286.28a44.82,44.82,0,0,0,19.21-25.42c4.91-16.12-.91-27-2.6-29.63a.83.83,0,0,0-1.17-.24c-1.8,1.18-6.68,5.27-11.14,17-5,13.18-5.08,33.5-5,37.82A.49.49,0,0,0,338,286.28Z" class="cls-35"/><path d="M315.08,278.16c-4.95,9.63-12.2,25.63-14,33.12a.46.46,0,0,0,.59.55,50.54,50.54,0,0,0,25.73-19.43s5.71-8.45,5.94-12.44-.48-13.86,0-16.61S320.21,268.19,315.08,278.16Z" class="cls-36"/></svg>